<svg width="171" height="41" viewBox="0 0 171 41" fill="none" xmlns="http://www.w3.org/2000/svg">
<g id="logo-beyaz 1" clip-path="url(#clip0_26_596)">
<g id="Group">
<path id="Vector" d="M13.7631 0.278084C8.27044 0.724869 3.53917 3.98304 1.72903 8.5647C1.01072 10.3813 0.776073 12.3582 1.04903 14.2549C1.82481 19.5995 6.43157 23.9156 12.4175 24.9103C13.6721 25.1211 13.3752 25.1126 21.5592 25.1295L29.2307 25.1464V18.6638C29.2307 12.0294 29.2211 11.6585 29.0344 10.6469C28.091 5.44141 23.3645 1.26017 17.4504 0.404533C16.2772 0.235933 14.8933 0.189569 13.7631 0.278084ZM16.0042 4.66164C18.3938 4.88925 20.5679 5.90506 22.0859 7.50253C22.9623 8.42139 23.5992 9.49621 23.9296 10.6216C24.2313 11.6374 24.2217 11.4267 24.2361 16.3034L24.2552 20.7628L19.2127 20.7459C13.744 20.7291 13.9259 20.7333 12.8149 20.4846C11.4406 20.1811 10.1811 19.5953 9.06537 18.7438C7.58086 17.6142 6.48903 15.9704 6.10593 14.2886C5.44509 11.3972 6.6279 8.41718 9.18988 6.52044C11.0862 5.11686 13.6051 4.42982 16.0042 4.66164Z" fill="white"/>
<path id="Vector_2" d="M31.5303 12.6874V25.1426H38.7756C47.266 25.1426 47.3522 25.1384 49.0953 24.759C51.6956 24.1942 53.9272 23.0688 55.8139 21.366C59.2475 18.2595 60.5931 13.8676 59.3959 9.63573C58.0503 4.87282 53.5393 1.20159 48.0514 0.404961C46.8973 0.240578 46.5573 0.232147 38.9432 0.232147H31.5303V12.6874ZM46.6052 4.66207C47.6922 4.76323 48.6548 5.0077 49.6269 5.41655C51.5472 6.23425 53.0317 7.54511 53.9368 9.21845C54.9663 11.1194 55.1196 13.2311 54.3677 15.2163C53.386 17.8128 50.939 19.8191 47.946 20.485C46.8303 20.7337 47.017 20.7295 41.5531 20.7464L36.5106 20.7632V12.6916V4.61571H41.3232C44.3832 4.61571 46.3083 4.63257 46.6052 4.66207Z" fill="white"/>
<path id="Vector_3" d="M74.2446 0.27808C69.3888 0.703793 65.1652 3.22434 62.9767 7.00516C61.9136 8.8471 61.4443 10.5795 61.4443 12.6869C61.4443 14.3856 61.7508 15.8102 62.4404 17.3276C63.4173 19.4646 65.0838 21.3529 67.2052 22.727C69.1303 23.9704 71.2756 24.7249 73.7993 25.0452C74.3069 25.1084 75.1353 25.1169 82.0407 25.1295L89.717 25.1464L89.6979 18.3055C89.6835 11.5531 89.6835 11.4562 89.5829 10.9166C89.4249 10.0737 89.2477 9.41612 88.9939 8.74594C87.7393 5.42877 84.9618 2.73119 81.3176 1.2981C80.1779 0.851316 78.9328 0.535194 77.5728 0.353951C76.8449 0.257006 74.9773 0.214857 74.2446 0.27808ZM76.4857 4.66164C80.3119 5.02835 83.506 7.43509 84.4398 10.6637C84.7128 11.6079 84.7032 11.4351 84.7176 16.2823L84.7367 20.7628L79.7181 20.7459C74.1584 20.7291 74.3548 20.7417 73.1336 20.4467C71.63 20.08 70.2652 19.3803 69.1255 18.3898C66.3336 15.9535 65.6201 12.2359 67.3488 9.14636C68.0384 7.91138 69.0249 6.89557 70.3226 6.08208C70.8829 5.72803 72.0466 5.2138 72.7122 5.01991C73.919 4.67429 75.2742 4.54362 76.4857 4.66164Z" fill="white"/>
<path id="Vector_4" d="M105.132 0.257437C105.041 0.265867 104.749 0.295372 104.485 0.320662C99.826 0.754803 95.5975 3.38915 93.4905 7.16576C92.8631 8.29537 92.5088 9.21423 92.2741 10.3312C92.0107 11.5873 92.0107 11.5788 92.0107 18.6305V25.1426H94.5009H96.991V18.8075C96.991 14.7105 97.0102 12.3038 97.0437 11.9919C97.4891 7.70106 101.66 4.45132 106.497 4.62835C111.094 4.79695 114.819 7.87809 115.279 11.9034C115.313 12.1858 115.332 14.5672 115.332 18.74V25.1426H117.822H120.317L120.298 18.3228C120.283 10.8623 120.298 11.2753 119.996 10.0572C118.919 5.65681 115.217 2.09937 110.352 0.780092C109.001 0.417606 107.943 0.274296 106.425 0.253222C105.807 0.244793 105.223 0.249006 105.132 0.257437Z" fill="white"/>
<path id="Vector_5" d="M135.732 0.261652C134.502 0.367025 133.726 0.48926 132.816 0.716867C128.013 1.93499 124.249 5.37019 123.047 9.63573C121.85 13.8676 123.195 18.2595 126.629 21.366C128.521 23.0688 130.743 24.1942 133.348 24.759C134.732 25.0625 135.694 25.1426 137.854 25.1426H139.276V22.9508V20.759H137.926C135.895 20.759 135.033 20.6663 133.889 20.3291C131.552 19.6463 129.588 18.1289 128.525 16.1858C128.276 15.7348 127.975 15.0393 127.975 14.9171C127.975 14.8665 129.564 14.8581 139.444 14.8581H150.913V13.5177C150.913 12.0931 150.87 11.4819 150.716 10.6473C150.257 8.10148 148.854 5.69474 146.78 3.89074C144.352 1.77482 141.35 0.539839 137.983 0.274296C137.475 0.236362 136.125 0.227932 135.732 0.261652ZM137.686 4.66207C140.473 4.92762 142.887 6.22161 144.414 8.26165C144.869 8.86861 145.41 9.88441 145.521 10.3354L145.559 10.4745H136.767C131.93 10.4745 127.975 10.4576 127.975 10.4408C127.975 10.327 128.305 9.57672 128.544 9.14679C129.129 8.09727 129.871 7.2627 130.872 6.52087C132.768 5.11729 135.287 4.43025 137.686 4.66207Z" fill="white"/>
<path id="Vector_6" d="M144.736 0.278511C144.774 0.299587 145.095 0.468185 145.449 0.653643C146.345 1.12572 147.192 1.67788 148.107 2.39021C148.519 2.71054 149.419 3.59569 149.893 4.13942L150.305 4.61571H152.283H154.265V14.8791V25.1426H156.755H159.245V14.8791V4.61571H165.088H170.93V2.42393V0.232147L157.799 0.236362C149.563 0.236362 144.693 0.253222 144.736 0.278511Z" fill="white"/>
<path id="Vector_7" d="M12.7102 33.5054V34.8711L12.3654 34.5634C11.3838 33.7035 10.019 33.6951 9.07079 34.5381C7.99333 35.4991 7.99333 37.1219 9.07079 38.0829C10.0621 38.968 11.5753 38.9512 12.533 38.0492L12.7581 37.8342V38.0744C12.7581 38.4622 12.9592 38.673 13.3376 38.673C13.4716 38.673 13.4764 38.6688 13.4764 38.4496C13.4764 38.2768 13.4573 38.2178 13.3807 38.1756C13.2849 38.125 13.2849 38.0787 13.2849 35.1324V32.1398H12.9976H12.7102V33.5054ZM11.5897 34.5423C11.968 34.7025 12.4468 35.0987 12.6097 35.3727C12.7007 35.537 12.7102 35.6171 12.7102 36.3632C12.7102 37.0755 12.6959 37.1977 12.6145 37.3579C12.4804 37.6192 12.0925 37.9269 11.6711 38.1124C11.3263 38.2641 11.2736 38.2725 10.8714 38.2725C10.4787 38.2725 10.4021 38.2599 10.1099 38.1377C9.73164 37.9775 9.30544 37.6234 9.1091 37.2989C8.64939 36.5444 8.78347 35.5623 9.43474 34.9259C9.84657 34.5212 10.2536 34.3653 10.8474 34.3864C11.2018 34.399 11.3071 34.4201 11.5897 34.5423Z" fill="white"/>
<path id="Vector_8" d="M18.3604 32.5609V32.9824H18.6237H18.8871V32.5609V32.1394H18.6237H18.3604V32.5609Z" fill="white"/>
<path id="Vector_9" d="M24.0596 32.5609V32.9824H24.323H24.5863V32.5609V32.1394H24.323H24.0596V32.5609Z" fill="white"/>
<path id="Vector_10" d="M29.6611 32.5609V32.9824H29.9245H30.1879V32.5609V32.1394H29.9245H29.6611V32.5609Z" fill="white"/>
<path id="Vector_11" d="M51.0186 35.1306C51.0186 38.0305 51.0233 38.1317 51.1143 38.2919C51.3394 38.6796 51.847 38.7892 52.6371 38.6206C52.8574 38.5743 52.8622 38.5616 52.7856 38.3214C52.7425 38.1781 52.7186 38.1612 52.6324 38.1823C52.5749 38.1991 52.4073 38.2202 52.2636 38.2329C52.0386 38.2539 51.9763 38.2413 51.8326 38.157C51.7369 38.098 51.6411 37.9968 51.6076 37.9125C51.5645 37.8029 51.5501 37.0147 51.5501 34.9494L51.5453 32.138H51.2819H51.0186V35.1306Z" fill="white"/>
<path id="Vector_12" d="M79.0342 35.3853V38.6309H79.2976H79.5609L79.5657 37.9017L79.5705 37.1767L80.1452 36.7131C80.4612 36.4559 80.739 36.2452 80.7581 36.2368C80.7821 36.2283 81.2466 36.7636 81.7925 37.4254L82.7885 38.6309H83.0902C83.2578 38.6309 83.3919 38.6224 83.3919 38.6098C83.3919 38.5971 82.9035 37.9986 82.3097 37.2779C81.7111 36.5571 81.2226 35.9459 81.2178 35.9206C81.2178 35.8911 81.6871 35.4612 82.2666 34.9638C82.846 34.4665 83.3297 34.045 83.3345 34.0281C83.344 34.007 83.21 33.9944 83.0328 33.9944H82.7167L81.1508 35.301L79.5849 36.6035L79.5705 34.3737L79.5609 32.1398H79.2976H79.0342V35.3853Z" fill="white"/>
<path id="Vector_13" d="M87.8447 35.0971C87.8447 37.879 87.8543 38.0687 87.9357 38.2288C88.0459 38.4438 88.2709 38.6124 88.5295 38.6756C88.7402 38.7262 89.3101 38.6841 89.5735 38.5913C89.698 38.5534 89.698 38.545 89.6501 38.3553C89.607 38.1867 89.5878 38.1614 89.5016 38.1867C89.2335 38.2541 88.8647 38.2583 88.7163 38.1909C88.4098 38.0518 88.4194 38.1656 88.4194 35.0044V32.1382H88.1321H87.8447V35.0971Z" fill="white"/>
<path id="Vector_14" d="M130.8 32.5609V32.9824H131.063H131.327V32.5609V32.1394H131.063H130.8V32.5609Z" fill="white"/>
<path id="Vector_15" d="M35.4556 33.213V33.9927H35.0965H34.7373V34.2035V34.4142H35.0917H35.4508L35.4652 36.2562C35.4796 38.3046 35.47 38.2288 35.8052 38.4901C36.1212 38.7346 36.6241 38.7683 37.261 38.5828C37.6489 38.4732 37.6824 38.4311 37.5818 38.2119C37.5387 38.115 37.486 38.0391 37.4621 38.0391C37.4334 38.0391 37.3232 38.0813 37.2131 38.1318C36.9353 38.2583 36.4756 38.2625 36.2841 38.1403C36.0303 37.9759 36.0303 37.9801 36.0303 36.1297V34.4142H36.6289H37.2274V34.2035V33.9927H36.6289H36.0303V33.213V32.4332H35.7429H35.4556V33.213Z" fill="white"/>
<path id="Vector_16" d="M43.2383 33.9941C43.0563 34.0362 42.8169 34.1037 42.7115 34.1416C42.4146 34.2512 41.9693 34.4999 41.9693 34.5547C41.9693 34.5842 42.0124 34.6685 42.065 34.7443L42.1608 34.8834L42.2949 34.8033C42.9797 34.3776 43.8752 34.2175 44.4834 34.4198C45.0532 34.6052 45.3501 35.0352 45.4028 35.7433L45.4315 36.1353L45.1203 36.0594C43.8081 35.7391 42.5104 35.9245 41.9166 36.5146C41.4569 36.9783 41.4904 37.7201 41.9932 38.2385C42.6684 38.934 44.2774 38.8876 45.216 38.1458L45.465 37.9477V38.1416C45.465 38.4914 45.6518 38.6727 46.0157 38.6727H46.1834V38.4409C46.1834 38.268 46.1642 38.209 46.1163 38.209C46.078 38.209 46.0301 38.1837 46.0062 38.1542C45.987 38.1289 45.9583 37.4503 45.9439 36.6495C45.92 35.2754 45.9104 35.1827 45.8098 34.9635C45.6566 34.6263 45.4363 34.3818 45.1203 34.2006C44.6222 33.9182 43.8991 33.8381 43.2383 33.9941ZM45.0293 36.3966L45.4267 36.4935L45.4076 36.9656C45.3932 37.4208 45.3884 37.4503 45.2448 37.6274C45.1586 37.7243 44.967 37.8845 44.8138 37.9772C44.4067 38.2217 44.0524 38.3144 43.5017 38.3144C43.0994 38.3144 43.018 38.3018 42.8025 38.2006C42.4865 38.0531 42.2758 37.8297 42.18 37.5389C42.0842 37.2607 42.1129 37.0752 42.2901 36.8265C42.4386 36.62 42.7738 36.4261 43.1569 36.3292C43.516 36.2406 44.5312 36.2744 45.0293 36.3966Z" fill="white"/>
<path id="Vector_17" d="M71.2424 33.972C70.3613 34.1406 69.5855 34.8319 69.3413 35.6622C69.2982 35.8097 69.2646 36.0921 69.2646 36.3113C69.2646 36.7792 69.3556 37.1164 69.5855 37.5041C70.0548 38.2881 70.8497 38.7181 71.8506 38.7265C72.5449 38.7307 73.0813 38.5663 73.5458 38.2038C73.7756 38.0226 74.0534 37.6938 74.0534 37.5969C74.0534 37.5674 73.9528 37.5252 73.8283 37.4999C73.6128 37.4578 73.5937 37.4578 73.5266 37.5463C73.0477 38.1659 72.157 38.4694 71.3956 38.2713C71.0077 38.1743 70.7587 38.0394 70.4666 37.7655C70.1841 37.5041 69.9015 37.0236 69.8585 36.7202L69.8249 36.5221H72.1331H74.4365V36.2987C74.4365 36.1806 74.403 35.9488 74.3646 35.7844C74.0486 34.4778 72.6982 33.6938 71.2424 33.972ZM72.3821 34.3977C72.7413 34.4947 72.9951 34.6338 73.2776 34.8951C73.6128 35.207 73.7804 35.5147 73.881 36.0036L73.9097 36.1427H71.8554H69.8058L69.8489 35.9235C70.0835 34.7813 71.2232 34.0942 72.3821 34.3977Z" fill="white"/>
<path id="Vector_18" d="M95.2196 33.9727C94.9275 34.0317 94.1517 34.3352 93.9554 34.4659C93.8692 34.5249 93.8692 34.5333 93.9698 34.7061L94.0751 34.8832L94.2284 34.7946C94.4678 34.6513 95.0329 34.4279 95.2819 34.3689C95.4112 34.3436 95.6841 34.3268 95.9044 34.3394C96.7855 34.3816 97.2692 34.8537 97.3171 35.7219L97.341 36.1308L96.8909 36.0254C96.2971 35.8905 95.3058 35.8737 94.8605 35.9917C93.9554 36.2319 93.5244 36.6661 93.5244 37.3236C93.5292 38.2467 94.4391 38.8452 95.641 38.7146C96.2827 38.6429 96.7664 38.4532 97.1639 38.116L97.3602 37.9474L97.3841 38.1919C97.4033 38.3984 97.432 38.4532 97.5613 38.5544C97.6715 38.6429 97.7624 38.6724 97.9013 38.6724H98.0929V38.4448C98.0929 38.2551 98.0785 38.2088 98.0019 38.1877C97.954 38.175 97.8965 38.1202 97.8822 38.0697C97.8678 38.0191 97.8534 37.3784 97.8534 36.645C97.8534 35.4269 97.8439 35.2878 97.7577 35.0433C97.5853 34.5586 97.2117 34.213 96.661 34.0317C96.3067 33.9179 95.641 33.8884 95.2196 33.9727ZM96.934 36.3921L97.3267 36.4891V36.9401C97.3267 37.3658 97.3171 37.4037 97.1926 37.5807C96.7233 38.2298 95.4208 38.5417 94.6881 38.1793C94.0416 37.8631 93.8548 37.1255 94.3146 36.704C94.5013 36.5354 94.6641 36.4553 95.0281 36.3457C95.4064 36.2362 96.3833 36.2615 96.934 36.3921Z" fill="white"/>
<path id="Vector_19" d="M104.855 33.9775C104.362 34.0913 103.945 34.3485 103.634 34.7236L103.433 34.9681L103.418 34.4791L103.404 33.9944H103.145H102.882V36.3126V38.6309H103.169H103.456V37.1598V35.693L103.629 35.3896C103.974 34.7826 104.544 34.4159 105.195 34.3822C105.769 34.3527 106.143 34.5845 106.358 35.1114C106.44 35.2968 106.449 35.5076 106.464 36.9744L106.478 38.6309H106.761H107.043L107.058 37.143L107.072 35.6593L107.235 35.3643C107.675 34.5761 108.652 34.1672 109.366 34.4749C109.648 34.5971 109.811 34.7742 109.955 35.1114C110.031 35.301 110.041 35.4991 110.055 36.9744L110.07 38.6309H110.357H110.64V37.1177C110.64 35.9628 110.62 35.5202 110.568 35.2462C110.438 34.5887 110.17 34.2094 109.72 34.0365C109.236 33.8553 108.6 33.8806 108.068 34.1082C107.752 34.2431 107.311 34.614 107.115 34.9006L106.986 35.0987L106.904 34.8753C106.641 34.1166 105.803 33.7499 104.855 33.9775Z" fill="white"/>
<path id="Vector_20" d="M122.971 33.9889C122.789 34.0353 122.55 34.1027 122.444 34.1407C122.162 34.2461 121.702 34.499 121.702 34.5495C121.702 34.5748 121.745 34.6549 121.798 34.7308L121.893 34.8699L122.267 34.6844C122.751 34.4399 123.158 34.3304 123.589 34.3304C124.001 34.3304 124.202 34.3767 124.479 34.5327C124.896 34.7645 125.097 35.1354 125.135 35.7466L125.164 36.1301L124.714 36.0248C124.12 35.8899 123.129 35.873 122.684 35.9911C122.066 36.1554 121.712 36.3746 121.482 36.7413C121.362 36.9352 121.343 37.0069 121.343 37.3019C121.343 37.6012 121.362 37.6728 121.501 37.9257C121.798 38.4526 122.348 38.7266 123.115 38.7266C123.847 38.7266 124.503 38.5158 124.963 38.1365L125.198 37.9426V38.1365C125.198 38.4905 125.384 38.6718 125.748 38.6718H125.916V38.4399C125.916 38.2671 125.897 38.2081 125.849 38.2081C125.811 38.2081 125.763 38.1828 125.739 38.1533C125.72 38.128 125.691 37.4494 125.677 36.6486C125.653 35.2661 125.643 35.1818 125.542 34.9542C125.327 34.4863 124.925 34.1491 124.408 34.01C124.02 33.9046 123.364 33.892 122.971 33.9889ZM124.757 36.3957L125.159 36.4926L125.14 36.9647C125.126 37.4199 125.121 37.4494 124.977 37.6265C124.891 37.7234 124.7 37.8836 124.546 37.9763C124.139 38.2208 123.785 38.3135 123.234 38.3135C122.832 38.3135 122.751 38.3009 122.535 38.1997C122.219 38.0522 122.008 37.8288 121.913 37.5422C121.726 36.9858 122.095 36.5348 122.899 36.3282C123.249 36.2397 124.269 36.2735 124.757 36.3957Z" fill="white"/>
<path id="Vector_21" d="M137.653 33.9725C137.365 34.0273 136.585 34.3392 136.384 34.4741C136.302 34.5331 136.302 34.5415 136.407 34.7059C136.508 34.8661 136.522 34.8745 136.613 34.8197C137.389 34.3771 138.146 34.2254 138.783 34.394C139.099 34.4783 139.429 34.7354 139.592 35.0305C139.702 35.2286 139.726 35.3381 139.745 35.7049L139.769 36.1474L139.63 36.1011C139.381 36.0168 138.854 35.9367 138.404 35.9072C137.518 35.8608 136.762 36.0716 136.321 36.4973C136.048 36.7586 135.972 36.9483 135.972 37.3487C135.972 37.7365 136.149 38.0694 136.494 38.3434C136.858 38.6342 137.174 38.727 137.767 38.7228C138.5 38.7185 139.123 38.5204 139.602 38.1327L139.803 37.9683V38.1116C139.803 38.4446 140.023 38.6722 140.339 38.6722H140.521V38.4488C140.521 38.276 140.502 38.217 140.425 38.1748C140.334 38.1242 140.329 38.0779 140.329 36.8893C140.329 35.5447 140.291 35.1822 140.119 34.8534C139.736 34.1158 138.749 33.766 137.653 33.9725ZM138.969 36.316C139.123 36.3371 139.367 36.3919 139.506 36.4256L139.755 36.4973V36.9356C139.755 37.4456 139.702 37.5763 139.396 37.825C139.008 38.1411 138.419 38.335 137.854 38.335C137.087 38.335 136.503 37.884 136.498 37.2897C136.498 36.826 136.853 36.493 137.514 36.3371C137.82 36.2612 138.577 36.2528 138.969 36.316Z" fill="white"/>
<path id="Vector_22" d="M147.656 33.9354C146.976 34.0534 146.272 34.4496 145.913 34.9217C145.841 35.0186 145.836 35.0018 145.836 34.5086V33.9944H145.573H145.31V36.3126V38.6309H145.597H145.884V37.1851V35.7352L146.028 35.4865C146.31 34.9933 146.775 34.6351 147.359 34.4623C148.039 34.2599 148.599 34.4033 148.863 34.8543C149.059 35.1957 149.093 35.4907 149.093 37.1008V38.6309H149.385H149.677L149.653 36.9533C149.639 35.5792 149.619 35.2336 149.557 35.0144C149.399 34.496 149.121 34.1546 148.734 34.0113C148.542 33.9438 147.891 33.8975 147.656 33.9354Z" fill="white"/>
<path id="Vector_23" d="M155.767 33.9727C155.37 34.0486 155.039 34.2045 154.81 34.4237C154.527 34.6934 154.441 34.9211 154.46 35.3552C154.479 35.684 154.494 35.7303 154.628 35.8778C154.843 36.1139 155.193 36.2488 156.155 36.4637C157.439 36.7546 157.75 36.9105 157.836 37.3067C157.879 37.5006 157.774 37.7746 157.587 37.9516C157.357 38.175 157.012 38.2972 156.529 38.3267C155.858 38.3605 155.269 38.2087 154.757 37.8715C154.618 37.7788 154.489 37.7029 154.465 37.7029C154.407 37.7029 154.216 37.939 154.216 38.0148C154.216 38.1076 154.829 38.4532 155.198 38.567C155.897 38.7777 156.787 38.7862 157.405 38.5839C157.774 38.4616 158.157 38.1413 158.281 37.8462C158.411 37.5512 158.411 37.155 158.291 36.9232C158.104 36.5522 157.736 36.3836 156.505 36.1012C155.997 35.9832 155.485 35.8483 155.375 35.7978C155.073 35.6713 154.972 35.5111 154.992 35.1866C155.016 34.8494 155.188 34.6176 155.533 34.4616C155.753 34.3605 155.82 34.352 156.371 34.352C156.888 34.352 157.008 34.3689 157.252 34.4532C157.405 34.508 157.611 34.6176 157.712 34.6934C157.812 34.7735 157.913 34.8368 157.937 34.8368C157.961 34.8368 158.042 34.7777 158.119 34.7103L158.258 34.5839L158.09 34.4321C157.635 34.019 156.601 33.8125 155.767 33.9727Z" fill="white"/>
<path id="Vector_24" d="M18.3604 36.3126V38.6309H18.6237H18.8871V36.3126V33.9944H18.6237H18.3604V36.3126Z" fill="white"/>
<path id="Vector_25" d="M24.0587 36.4719C24.0587 37.9556 24.0395 39.0051 24.0108 39.0894C23.9294 39.3423 23.7282 39.5488 23.4505 39.6669C23.2302 39.7638 23.1488 39.7764 22.9094 39.7554C22.7418 39.7427 22.5454 39.6964 22.4449 39.6416L22.2629 39.5488L22.1288 39.6879C22.057 39.768 22.0043 39.8565 22.0091 39.8903C22.0282 39.983 22.4161 40.1389 22.7418 40.1937C23.4744 40.3117 24.1161 40.0378 24.4418 39.4645L24.5854 39.2074V36.5984V33.9935H24.322H24.0587V36.4719Z" fill="white"/>
<path id="Vector_26" d="M29.6611 36.3126V38.6309H29.9245H30.1879V36.3126V33.9944H29.9245H29.6611V36.3126Z" fill="white"/>
<path id="Vector_27" d="M62.8955 36.3126V38.6309H63.1828H63.4702V37.1641V35.693L63.6186 35.4317C63.9107 34.9133 64.5428 34.5171 65.151 34.4707L65.4335 34.4454V34.2136V33.986L65.1079 34.0028C64.5333 34.0281 63.8772 34.4075 63.5324 34.9048L63.4223 35.0692V34.5297V33.9944H63.1589H62.8955V36.3126Z" fill="white"/>
<path id="Vector_28" d="M130.8 36.4428C130.8 38.1035 130.781 38.9465 130.748 39.0729C130.676 39.3258 130.379 39.6166 130.106 39.7094C129.833 39.7979 129.431 39.7684 129.182 39.6419L129.005 39.5492L128.847 39.7094L128.688 39.8738L128.823 39.9665C129.182 40.2236 130.001 40.291 130.441 40.1056C130.786 39.9581 131.102 39.663 131.227 39.3764C131.327 39.1361 131.327 39.0856 131.327 36.565V33.9939H131.064H130.8V36.4428Z" fill="white"/>
<path id="Vector_29" d="M163.028 36.3126V38.6309H163.316H163.603V36.3126V33.9944H163.316H163.028V36.3126Z" fill="white"/>
</g>
</g>
<defs>
<clipPath id="clip0_26_596">
<rect width="170" height="40" fill="white" transform="translate(0.928711 0.232422)"/>
</clipPath>
</defs>
</svg>
