<svg width="119" height="121" viewBox="0 0 119 121" fill="none" xmlns="http://www.w3.org/2000/svg">
<g id="Group 40">
<g id="Group">
<path id="C" d="M51.2065 117.097C51.9768 116.207 52.5041 115.097 52.8257 113.774C53.1566 112.414 53.199 111.182 52.925 110.031C52.651 108.881 52.1121 107.925 51.2943 107.139C50.4812 106.335 49.4266 105.791 48.1586 105.475C47.1702 105.228 46.2292 105.194 45.3541 105.376C44.479 105.558 43.7163 105.929 43.0614 106.507C42.4112 107.066 41.8966 107.799 41.5176 108.707L43.6621 109.242C44.0927 108.448 44.6638 107.889 45.3754 107.566C46.0916 107.223 46.8926 107.183 47.7877 107.406C48.6082 107.611 49.2709 107.977 49.7665 108.542C50.2808 109.111 50.6092 109.794 50.747 110.61C50.908 111.412 50.855 112.28 50.6253 113.225C50.3955 114.169 50.0442 114.964 49.5339 115.598C49.0423 116.236 48.4383 116.687 47.7218 116.949C47.024 117.216 46.2648 117.246 45.4443 117.042C44.5492 116.818 43.863 116.386 43.3625 115.76C42.8853 115.12 42.6358 114.357 42.6142 113.469L40.4697 112.934C40.3984 113.878 40.5178 114.77 40.8326 115.59C41.1661 116.414 41.6855 117.125 42.3768 117.699C43.0681 118.272 43.9173 118.684 44.887 118.927C46.155 119.243 47.3428 119.239 48.4317 118.91C49.5206 118.58 50.4363 117.987 51.2065 117.097Z" fill="white"/>
<path id="O" d="M28.667 99.6366C27.6589 100.235 26.7901 101.083 26.0933 102.202C25.3965 103.321 25.015 104.48 24.9165 105.66C24.8342 106.85 25.0535 107.956 25.5805 109.006C26.1178 110.04 26.8959 110.905 27.968 111.59C29.04 112.275 30.1624 112.625 31.3144 112.671C32.4768 112.701 33.5569 112.425 34.565 111.827C35.5895 111.239 36.442 110.381 37.1388 109.262C37.8356 108.142 38.2333 106.993 38.3156 105.804C38.4141 104.624 38.205 103.501 37.6678 102.468C37.1408 101.418 36.3362 100.558 35.2641 99.8731C34.192 99.1878 33.0962 98.8325 31.9339 98.8028C30.7818 98.7567 29.6914 99.049 28.667 99.6366ZM36.1199 105.573C36.0289 106.413 35.7242 107.23 35.2221 108.036C34.7302 108.826 34.1331 109.457 33.4248 109.902C32.7328 110.357 32.0031 110.58 31.2254 110.589C30.4476 110.598 29.7177 110.385 29.003 109.928C28.3045 109.482 27.8 108.906 27.4731 108.191C27.1463 107.476 27.0314 106.712 27.1224 105.873C27.2297 105.045 27.5181 104.217 28.01 103.427C28.5121 102.62 29.1254 102 29.8175 101.545C30.5257 101.101 31.2555 100.877 32.0332 100.868C32.8109 100.859 33.5306 101.089 34.2291 101.535C34.9438 101.992 35.4586 102.551 35.7854 103.266C36.1123 103.981 36.2272 104.745 36.1199 105.573Z" fill="white"/>
<path id="N" d="M27.6636 94.4375L26.2825 92.7415L18.9345 98.8833L22.1147 87.6233L20.8314 86.0474L10.4612 94.7153L11.8423 96.4114L19.1904 90.2695L16.0101 101.53L17.2935 103.105L27.6636 94.4375Z" fill="white"/>
<path id="T" d="M7.19775 89.2871L8.99828 88.5052L7.36388 84.6422L17.9199 80.0579L17.0497 78.0012L6.49371 82.5855L4.85931 78.7226L3.05878 79.5045L7.19775 89.2871Z" fill="white"/>
<path id="A" d="M14.8992 72.8172L14.6185 70.5192L11.1678 69.6775L10.4907 64.1354L13.6324 62.4474L13.3423 60.0722L0.615863 66.7853L0.939055 69.4309L14.8992 72.8172ZM9.22438 69.2938L3.14917 67.8793L8.6983 64.9876L9.22438 69.2938Z" fill="white"/>
<path id="C_2" d="M3.42981 55.8851C4.35396 56.6091 5.48083 57.0738 6.80352 57.3175C8.16401 57.5682 9.38021 57.5351 10.4968 57.1871C11.6134 56.8391 12.5221 56.2352 13.2453 55.3598C13.9875 54.4879 14.4582 53.388 14.6918 52.0862C14.874 51.0716 14.8499 50.1179 14.6163 49.2442C14.3828 48.3705 13.9705 47.6222 13.3607 46.9956C12.7698 46.3725 12.0157 45.8974 11.0984 45.5702L10.7032 47.7717C11.5123 48.1581 12.0981 48.7011 12.4605 49.4008C12.8418 50.1039 12.9311 50.9114 12.7662 51.8303C12.615 52.6727 12.2955 53.3653 11.7698 53.9013C11.2407 54.4565 10.5879 54.8306 9.79257 55.0203C9.01268 55.2326 8.15378 55.2326 7.209 55.0585C6.26422 54.8844 5.46029 54.5781 4.80411 54.1012C4.14449 53.6435 3.66353 53.0605 3.36122 52.3521C3.05547 51.6629 2.9782 50.8972 3.12939 50.0548C3.29433 49.1359 3.67742 48.4154 4.26321 47.8707C4.86446 47.3486 5.6014 47.0493 6.47405 46.9727L6.86922 44.7712C5.93473 44.7572 5.0638 44.933 4.27532 45.3019C3.4834 45.69 2.81516 46.2591 2.29292 46.9935C1.77069 47.7279 1.41679 48.612 1.23811 49.6075C1.00444 50.9093 1.08171 52.1101 1.47333 53.1909C1.86495 54.2717 2.50566 55.161 3.42981 55.8851Z" fill="white"/>
<path id="T_2" d="M4.28955 38.5352L6.03808 39.43L7.90857 35.6786L18.1598 40.9251L19.1556 38.9279L8.90444 33.6813L10.7749 29.9299L9.02639 29.035L4.28955 38.5352Z" fill="white"/>
<path id="U" d="M19.4881 16.4914L17.7817 17.9121L22.6592 23.9253C23.8786 25.4286 25.1465 26.287 26.478 26.4881C27.7946 26.7015 29.1355 26.24 30.4709 25.1282C31.8064 24.0163 32.5132 22.773 32.5765 21.4107C32.6398 20.0483 32.0692 18.6093 30.8498 17.106L25.9724 11.0928L24.266 12.5135L29.2166 18.6169C30.0214 19.6091 30.4233 20.5337 30.4399 21.351C30.4565 22.1683 30.0433 22.9153 29.2272 23.5948C28.4111 24.2742 27.6225 24.5279 26.8343 24.353C26.0461 24.1781 25.2435 23.587 24.4387 22.5948L19.4881 16.4914Z" fill="white"/>
<path id="S" d="M37.0542 15.2932L35.0427 16.1198C35.3892 16.9431 35.9101 17.5854 36.6053 18.0466C37.3004 18.5078 38.0868 18.7392 38.9795 18.7767C39.8721 18.8141 40.7955 18.6268 41.7848 18.1995C42.6681 17.8179 43.3777 17.321 43.9488 16.6936C44.5022 16.0738 44.854 15.3718 44.9941 14.6132C45.1417 13.8726 45.0574 13.1264 44.741 12.3746C44.4246 11.6229 43.9666 11.0804 43.4175 10.7676C42.8506 10.4625 42.2305 10.3285 41.5597 10.3221C40.8788 10.3413 40.1069 10.442 39.2516 10.6422C38.3964 10.8425 37.743 10.9767 37.2662 11.0345C36.7971 11.1103 36.3684 11.0839 36.0156 10.9402C35.6703 10.8143 35.4111 10.5456 35.2378 10.1339C34.9968 9.56114 35.028 9.03999 35.3164 8.53466C35.6048 8.02932 36.1201 7.61639 36.8444 7.3035C37.5864 6.98297 38.2699 6.92039 38.9303 7.10048C39.573 7.2882 40.0741 7.68516 40.416 8.299L42.4123 7.43663C42.0606 6.70014 41.5523 6.1371 40.915 5.71433C40.2676 5.31709 39.5241 5.0883 38.692 5.04585C37.8497 5.02893 36.9971 5.18573 36.1137 5.56731C35.2481 5.94125 34.5562 6.4305 34.0129 7.02478C33.4772 7.63695 33.1456 8.28784 33.0081 9.00297C32.8781 9.73599 32.9651 10.4388 33.2664 11.1547C33.5979 11.9423 34.0382 12.4924 34.5873 12.8052C35.1441 13.1358 35.7717 13.2877 36.435 13.2762C37.0982 13.2647 37.8626 13.146 38.7355 12.9382C39.5731 12.7456 40.2517 12.6217 40.7461 12.5562C41.2304 12.5162 41.659 12.5426 42.0118 12.6863C42.3646 12.83 42.6415 13.0912 42.8148 13.5028C43.0633 14.0935 43.0119 14.6657 42.6881 15.1863C42.3644 15.7069 41.8138 16.1351 41.0718 16.4556C40.2061 16.8296 39.4091 16.9201 38.6908 16.7015C37.9724 16.483 37.4235 16.0221 37.0542 15.2932Z" fill="white"/>
<path id="C_3" d="M62.8345 3.89122C62.1436 4.84556 61.7136 5.99863 61.5066 7.34445C61.2938 8.72872 61.3572 9.95967 61.7289 11.0817C62.1006 12.2038 62.7195 13.1089 63.6015 13.8192C64.4807 14.5487 65.5779 14.9976 66.8683 15.2013C67.8741 15.36 68.8145 15.3115 69.6706 15.0528C70.5268 14.7941 71.2548 14.3576 71.8576 13.7241C72.4574 13.1098 72.9071 12.334 73.2067 11.3967L71.0244 11.0523C70.6637 11.8815 70.1427 12.4885 69.4615 12.8733C68.7774 13.2773 67.9829 13.3882 67.072 13.2445C66.237 13.1127 65.5455 12.8066 65.0033 12.2878C64.4421 11.766 64.0563 11.1143 63.849 10.3136C63.6198 9.52908 63.5981 8.65918 63.7459 7.69788C63.8937 6.73658 64.1756 5.9146 64.6295 5.23792C65.0645 4.55825 65.6276 4.05635 66.3188 3.73222C66.9911 3.4051 67.7448 3.30743 68.5797 3.43922C69.4906 3.58298 70.2112 3.95273 70.7636 4.53222C71.294 5.12794 71.608 5.86674 71.7056 6.74863L73.8879 7.09307C73.878 6.14626 73.6825 5.26863 73.2985 4.47939C72.8955 3.68716 72.3171 3.02478 71.5792 2.51446C70.8413 2.00414 69.96 1.66812 68.9732 1.51237C67.6828 1.3087 66.4998 1.41738 65.4433 1.8414C64.3868 2.26543 63.5255 2.93688 62.8345 3.89122Z" fill="white"/>
<path id="O_2" d="M86.783 19.3008C87.736 18.6163 88.5287 17.6948 89.1269 16.5186C89.725 15.3424 90.0055 14.1536 90.0025 12.9701C89.9824 11.7776 89.6689 10.6946 89.0538 9.69501C88.4299 8.71268 87.5805 7.91903 86.4537 7.33084C85.3269 6.74265 84.1788 6.4936 83.0271 6.54909C81.8667 6.62188 80.8143 6.99187 79.8613 7.67638C78.8912 8.35197 78.1156 9.28232 77.5174 10.4585C76.9193 11.6347 76.6217 12.8146 76.6418 14.0071C76.6448 15.1907 76.9495 16.2909 77.5734 17.2732C78.1885 18.2729 79.0638 19.0581 80.1906 19.6463C81.3174 20.2345 82.4396 20.4919 83.6001 20.4192C84.7517 20.3637 85.8129 19.9764 86.783 19.3008ZM78.8489 14.0429C78.8676 13.199 79.101 12.3577 79.532 11.5101C79.9542 10.6799 80.4949 9.99901 81.1624 9.49375C81.8127 8.97958 82.5205 8.69238 83.2945 8.61486C84.0685 8.53733 84.814 8.68572 85.5652 9.07784C86.2993 9.46105 86.8514 9.98998 87.2383 10.6735C87.6253 11.3571 87.8053 12.1077 87.7866 12.9516C87.7508 13.7866 87.5345 14.6368 87.1123 15.467C86.6813 16.3146 86.1235 16.9865 85.4731 17.5007C84.8057 18.006 84.0979 18.2932 83.3239 18.3707C82.5499 18.4482 81.8132 18.2825 81.0791 17.8993C80.3279 17.5072 79.7671 16.9956 79.3801 16.312C78.9932 15.6285 78.8132 14.8779 78.8489 14.0429Z" fill="white"/>
<path id="N_2" d="M88.2298 24.3923L89.7512 25.9603L96.5444 19.1944L94.3424 30.6919L95.7561 32.1489L105.343 22.6003L103.822 21.0324L97.0286 27.7982L99.2306 16.3007L97.8169 14.8438L88.2298 24.3923Z" fill="white"/>
<path id="T_3" d="M109.059 27.7207L107.332 28.6583L109.292 32.3627L99.1695 37.8594L100.213 39.8316L110.336 34.3349L112.295 38.0393L114.022 37.1017L109.059 27.7207Z" fill="white"/>
<path id="A_2" d="M102.802 44.8067L103.279 47.0712L106.788 47.6058L107.938 53.0673L104.954 55.0256L105.446 57.3663L117.549 49.5577L117 46.9506L102.802 44.8067ZM108.757 47.8169L114.931 48.691L109.651 52.0605L108.757 47.8169Z" fill="white"/>
<path id="C_4" d="M115.677 60.6635C114.694 60.0236 113.531 59.6599 112.193 59.5336C110.816 59.4037 109.607 59.5437 108.525 59.9888C107.442 60.4339 106.589 61.1155 105.943 62.0513C105.279 62.9852 104.904 64.1224 104.783 65.4399C104.689 66.4667 104.795 67.4147 105.102 68.2645C105.41 69.1143 105.885 69.8235 106.546 70.394C107.188 70.9626 107.98 71.3696 108.922 71.6147L109.127 69.3867C108.288 69.0731 107.658 68.5837 107.237 67.9186C106.796 67.2518 106.638 66.4551 106.724 65.5252C106.802 64.6727 107.061 63.9545 107.538 63.3743C108.018 62.7746 108.636 62.3444 109.412 62.0854C110.171 61.8052 111.027 61.7296 111.983 61.8197C112.939 61.9099 113.766 62.1443 114.461 62.5616C115.157 62.9595 115.686 63.498 116.048 64.177C116.412 64.8366 116.555 65.5927 116.476 66.4452C116.391 67.3751 116.071 68.1266 115.534 68.7209C114.98 69.2939 114.271 69.657 113.409 69.8102L113.204 72.0382C114.136 71.9698 114.989 71.718 115.742 71.281C116.498 70.8246 117.115 70.1989 117.572 69.4212C118.029 68.6436 118.306 67.7317 118.399 66.7242C118.52 65.4068 118.34 64.2173 117.857 63.1751C117.374 62.1329 116.659 61.3033 115.677 60.6635Z" fill="white"/>
<path id="T_4" d="M116.313 78.0234L114.494 77.2859L112.953 81.1879L102.29 76.8642L101.469 78.9416L112.132 83.2653L110.591 87.1673L112.409 87.9048L116.313 78.0234Z" fill="white"/>
<path id="U_2" d="M103.061 101.323L104.639 99.7578L99.2642 94.197C97.9204 92.8067 96.5836 92.0633 95.2399 91.9803C93.91 91.8836 92.6138 92.4615 91.3788 93.6868C90.1438 94.912 89.5464 96.2128 89.6002 97.5756C89.654 98.9384 90.346 100.322 91.6897 101.712L97.0647 107.273L98.6427 105.707L93.1871 100.063C92.3002 99.1453 91.8205 98.2596 91.7338 97.4469C91.6471 96.6341 91.9947 95.8535 92.7494 95.1048C93.5041 94.356 94.268 94.0339 95.0682 94.1387C95.8684 94.2435 96.7187 94.7616 97.6055 95.6792L103.061 101.323Z" fill="white"/>
<path id="S_2" d="M85.6677 104.063L87.6005 103.062C87.1847 102.272 86.6107 101.678 85.8786 101.28C85.1465 100.882 84.3432 100.721 83.4507 100.762C82.5582 100.803 81.6545 101.071 80.7056 101.584C79.8583 102.042 79.1941 102.599 78.679 103.275C78.1809 103.941 77.8906 104.671 77.8161 105.439C77.7326 106.19 77.8807 106.926 78.2604 107.647C78.6401 108.368 79.1429 108.868 79.7168 109.132C80.3077 109.386 80.937 109.464 81.6058 109.412C82.2825 109.333 83.0428 109.164 83.8776 108.89C84.7124 108.615 85.3519 108.424 85.8218 108.324C86.2827 108.207 86.712 108.196 87.0758 108.308C87.4306 108.403 87.7119 108.648 87.9198 109.042C88.2091 109.592 88.2227 110.114 87.9788 110.643C87.7348 111.171 87.257 111.628 86.5622 112.004C85.8505 112.388 85.175 112.511 84.5016 112.39C83.8452 112.259 83.312 111.908 82.9187 111.326L81.004 112.361C81.4175 113.064 81.9723 113.58 82.6434 113.945C83.3224 114.284 84.0827 114.446 84.9154 114.415C85.7559 114.358 86.5919 114.127 87.4391 113.669C88.2694 113.22 88.9167 112.672 89.4069 112.032C89.8881 111.375 90.1626 110.697 90.2382 109.973C90.3047 109.231 90.1578 108.539 89.7962 107.852C89.3984 107.096 88.9126 106.587 88.3386 106.324C87.7557 106.044 87.1173 105.948 86.4576 106.017C85.7978 106.087 85.0466 106.273 84.1948 106.557C83.3769 106.822 82.7115 107.006 82.2246 107.114C81.7456 107.197 81.3163 107.208 80.9525 107.096C80.5887 106.984 80.2904 106.748 80.0825 106.354C79.7842 105.787 79.7864 105.212 80.0642 104.665C80.3421 104.118 80.8538 103.643 81.5655 103.258C82.3958 102.81 83.1821 102.649 83.9164 102.804C84.6508 102.958 85.2372 103.369 85.6677 104.063Z" fill="white"/>
</g>
<path id="Ellipse 18" d="M73.0275 60.5C73.0275 68.2443 66.8343 74.5 59.222 74.5C51.6097 74.5 45.4165 68.2443 45.4165 60.5C45.4165 52.7557 51.6097 46.5 59.222 46.5C66.8343 46.5 73.0275 52.7557 73.0275 60.5Z" stroke="white" stroke-width="2"/>
</g>
</svg>
