<svg width="89" height="99" viewBox="0 0 89 99" fill="none" xmlns="http://www.w3.org/2000/svg">
<path d="M44.8557 98.4824L8.91896 88.6824L0.912109 0.482422H88.9121L80.8865 88.664L44.8557 98.4824Z" fill="white"/>
<path d="M74.0261 83.0531L80.8677 7.69824H44.9121V90.9706L74.0261 83.0531Z" fill="#F8F8FF"/>
<path d="M16.341 83.3548L9.4995 8H45.4551V91.2723L16.341 83.3548Z" fill="#F8F8F9"/>
<path d="M20.2918 51.3654L71.5092 29.4769L72.5054 18.6619L19.3145 40.5504L20.2918 51.3654Z" fill="#313435"/>
<path opacity="0.2" d="M20.2918 51.3654L71.5092 29.4769L72.5054 18.6619L19.3145 40.5504L20.2918 51.3654Z" fill="url(#paint0_linear_26_463)"/>
<path d="M44.8931 18.6621H17.3203L17.5835 21.5597L18.2977 29.4772H44.9307V18.6621H44.8931Z" fill="#313435"/>
<path d="M70.5107 40.5507H44.8926V51.3657H58.4629L57.1848 65.3921L44.8926 68.6588V79.8983L67.4846 73.7525L70.5107 40.5507Z" fill="#0D0D12"/>
<path d="M44.8926 30.0121V40.8457L71.5069 29.4769L72.503 18.6619L44.8926 30.0121Z" fill="#0D0D12"/>
<path opacity="0.3" d="M44.8926 30.0121V40.8457L71.5069 29.4769L72.503 18.6619L44.8926 30.0121Z" fill="url(#paint1_linear_26_463)"/>
<path d="M19.3125 40.5507L20.2899 51.3657H44.9306V40.5507H19.3125Z" fill="#313435"/>
<path d="M72.503 18.6619H44.8926V29.44V29.4769H71.4693H71.5069L72.503 18.6619Z" fill="#0D0D12"/>
<path d="M44.9114 68.6588H44.8926L32.638 65.3922L31.8486 56.7733H25.8904H20.7969L22.3381 73.7526L44.8926 79.9168H44.9114V68.6588Z" fill="#313435"/>
<defs>
<linearGradient id="paint0_linear_26_463" x1="43.4542" y1="35.9424" x2="23.3545" y2="45.8322" gradientUnits="userSpaceOnUse">
<stop stop-color="white"/>
<stop offset="1"/>
</linearGradient>
<linearGradient id="paint1_linear_26_463" x1="44.8926" y1="29.7538" x2="72.503" y2="29.7538" gradientUnits="userSpaceOnUse">
<stop stop-color="white"/>
<stop offset="1"/>
</linearGradient>
</defs>
</svg>
