<svg width="32" height="32" viewBox="0 0 32 32" fill="none" xmlns="http://www.w3.org/2000/svg">
<g id="icons8-instagram 1">
<path id="Vector" d="M10.6638 3.19922C6.54754 3.19922 3.19922 6.55064 3.19922 10.668V21.3346C3.19922 25.4509 6.55064 28.7992 10.668 28.7992H21.3346C25.4509 28.7992 28.7992 25.4478 28.7992 21.3305V10.6638C28.7992 6.54754 25.4478 3.19922 21.3305 3.19922H10.6638ZM23.4659 7.46589C24.0547 7.46589 24.5326 7.94375 24.5326 8.53255C24.5326 9.12135 24.0547 9.59922 23.4659 9.59922C22.8771 9.59922 22.3992 9.12135 22.3992 8.53255C22.3992 7.94375 22.8771 7.46589 23.4659 7.46589ZM15.9992 9.59922C19.5288 9.59922 22.3992 12.4696 22.3992 15.9992C22.3992 19.5288 19.5288 22.3992 15.9992 22.3992C12.4696 22.3992 9.59922 19.5288 9.59922 15.9992C9.59922 12.4696 12.4696 9.59922 15.9992 9.59922ZM15.9992 11.7326C14.8676 11.7326 13.7824 12.1821 12.9822 12.9822C12.1821 13.7824 11.7326 14.8676 11.7326 15.9992C11.7326 17.1308 12.1821 18.2161 12.9822 19.0162C13.7824 19.8164 14.8676 20.2659 15.9992 20.2659C17.1308 20.2659 18.2161 19.8164 19.0162 19.0162C19.8164 18.2161 20.2659 17.1308 20.2659 15.9992C20.2659 14.8676 19.8164 13.7824 19.0162 12.9822C18.2161 12.1821 17.1308 11.7326 15.9992 11.7326Z" fill="white"/>
</g>
</svg>
