<svg width="89" height="99" viewBox="0 0 89 99" fill="none" xmlns="http://www.w3.org/2000/svg">
<path d="M44.8557 98.4824L8.91896 88.6824L0.912109 0.482422H88.9121L80.8865 88.664L44.8557 98.4824Z" fill="white"/>
<path d="M74.0261 83.0531L80.8677 7.69824H44.9121V90.9706L74.0261 83.0531Z" fill="#F8F8FF"/>
<path d="M16.341 83.3548L9.4995 8H45.4551V91.2723L16.341 83.3548Z" fill="#F8F8F9"/>
<path d="M37.6349 56.5855L37.7235 56.6286L37.8814 56.7046C38.0829 56.8003 38.2863 56.8951 38.4915 56.9862L38.6204 57.0435C38.8559 57.1465 39.0928 57.2445 39.3324 57.3388L39.506 57.4066C39.7272 57.4927 39.9522 57.5761 40.1776 57.6553L40.262 57.6841C40.5095 57.7702 40.7592 57.8504 41.0112 57.9287L41.1925 57.9822C41.4487 58.0596 41.7016 58.1517 41.966 58.2007C58.7463 61.2528 63.6201 48.1411 63.6201 48.1411C59.5262 53.4615 52.2599 54.8651 45.375 53.3026C45.1142 53.2439 44.8608 53.1624 44.6065 53.0873L44.4151 53.0296C44.1667 52.9536 43.9198 52.8735 43.6751 52.7897L43.5736 52.753C43.3542 52.6761 43.1371 52.5946 42.9213 52.5117L42.7386 52.4403C42.5017 52.3473 42.2667 52.2498 42.0344 52.1481L41.8935 52.0858C41.6938 51.9956 41.496 51.9045 41.2995 51.8101L41.1273 51.7277C40.9731 51.6526 40.8202 51.5725 40.6678 51.4942L40.3612 51.3339C40.1753 51.2345 39.9926 51.1315 39.8108 51.0257L39.6249 50.9222C39.3829 50.7798 39.1438 50.6328 38.9074 50.4835L38.7141 50.3553C38.5424 50.2449 38.3716 50.1327 38.2036 50.0169L38.0393 49.9015C37.8768 49.787 37.7161 49.6711 37.5568 49.5534L37.3429 49.3918C37.1969 49.2805 37.0514 49.1683 36.9077 49.0529L36.7135 48.8972C36.5308 48.747 36.35 48.5963 36.1709 48.4415L36.1117 48.3916C35.9175 48.2231 35.7279 48.0495 35.5407 47.8755L35.38 47.7212C35.2409 47.5898 35.1046 47.457 34.97 47.321L34.8094 47.1607C34.6386 46.9862 34.4711 46.8094 34.3067 46.6304L34.2819 46.6038C34.1079 46.4142 33.9381 46.2205 33.7719 46.025L33.6383 45.8666C33.5144 45.7177 33.3914 45.5666 33.2715 45.4141L33.137 45.2474C32.9924 45.0606 32.8515 44.8742 32.7133 44.6846C28.8913 39.4833 27.5178 32.3097 30.5728 26.4183L27.8648 29.8446C24.3948 34.8192 24.8272 41.2917 27.4774 46.5782L27.6715 46.9542L27.796 47.1923L27.8731 47.3292L28.0112 47.576C28.0934 47.7207 28.1774 47.8645 28.2637 48.0083L28.4083 48.246C28.5038 48.3999 28.6016 48.5519 28.7021 48.7039L28.827 48.8972C28.9652 49.1023 29.1066 49.3075 29.2521 49.509L29.2645 49.525L29.3361 49.6217C29.4623 49.7952 29.5922 49.9665 29.7235 50.1359L29.8695 50.3209C29.9866 50.4679 30.1064 50.6145 30.2276 50.7601L30.3644 50.9227C30.5273 51.1145 30.6935 51.305 30.8634 51.4914L30.8735 51.5019L30.8927 51.523C31.058 51.7034 31.2278 51.8793 31.3995 52.0561L31.562 52.2195C31.6952 52.3533 31.8301 52.4847 31.9669 52.6157L32.1326 52.7727C32.3149 52.944 32.499 53.1121 32.6872 53.2769L32.6964 53.2838L32.7928 53.3662C32.9585 53.5091 33.1274 53.6515 33.2973 53.7912L33.5061 53.957C33.6448 54.0678 33.7852 54.1772 33.9266 54.2848L34.1511 54.4552C34.3072 54.5697 34.4642 54.6823 34.6225 54.7927L34.7947 54.9145L34.842 54.9479C34.9925 55.0514 35.1463 55.1504 35.3001 55.2497L35.4984 55.3816C35.7339 55.5304 35.9735 55.6774 36.2155 55.8194L36.4138 55.9311C36.5919 56.0333 36.7705 56.1335 36.9518 56.2315L37.2493 56.3854L37.6349 56.5855ZM39.3301 39.7357C39.7061 40.2733 40.1225 40.9126 40.6215 41.3449C40.8023 41.5436 40.9915 41.7369 41.1843 41.9278L41.333 42.0734C41.5208 42.2548 41.7113 42.4329 41.9077 42.6065L41.9316 42.6266L41.9371 42.6326C42.1552 42.8231 42.3801 43.0063 42.6087 43.1867L42.7616 43.3058C42.9911 43.4811 43.2248 43.6533 43.4644 43.8177L43.485 43.8328L43.8055 44.0435L43.9579 44.1442C44.1291 44.2532 44.3022 44.3604 44.4789 44.4621L44.5523 44.5046C44.7043 44.5921 44.8585 44.6782 45.0128 44.7615L45.1762 44.8472L45.4985 45.0134L45.5471 45.0354C45.7684 45.1439 45.9915 45.2483 46.2192 45.3477L46.3674 45.4086C46.5492 45.4855 46.7333 45.5611 46.9178 45.6316L47.1538 45.7177C47.3218 45.78 47.4898 45.8368 47.6597 45.8931L47.8887 45.9664C48.1302 46.041 48.3685 46.1354 48.62 46.177C61.5754 48.3188 64.5666 38.3673 64.5666 38.3673C61.8702 42.241 56.6489 44.0888 51.0769 42.6463C50.8294 42.5813 50.5852 42.5112 50.3433 42.4348L50.1225 42.3638C49.9504 42.3084 49.7791 42.2493 49.6093 42.1875L49.3779 42.1014C49.192 42.0299 49.0075 41.9562 48.8252 41.8793L48.6765 41.8161C48.4479 41.7167 48.2225 41.6123 48.0008 41.5024L47.6615 41.3302L47.466 41.2299C47.3218 41.1521 47.1786 41.0706 47.0372 40.9886L46.9348 40.9304C46.759 40.8283 46.5864 40.723 46.4152 40.6149L46.2586 40.51L45.9226 40.2884C45.6835 40.124 45.4512 39.9523 45.2226 39.7778L45.0651 39.6537C42.6262 37.7336 40.6931 35.1077 39.7736 32.1307C38.8105 29.0442 39.018 25.5785 40.6866 22.7663L38.6365 25.654C36.1273 29.2557 36.2637 34.0783 38.2211 37.8879C38.5488 38.5258 38.9175 39.1458 39.3301 39.7357ZM52.9856 35.2795L53.3074 35.3907L53.4493 35.4356C53.6021 35.4832 53.7532 35.5391 53.9106 35.5684C61.0641 36.9473 63.0049 31.9063 63.5214 31.1644C61.8215 33.6057 58.9653 34.1914 55.4604 33.3428C55.1836 33.276 54.8792 33.1766 54.6121 33.0818C54.2701 32.96 53.9331 32.8217 53.6053 32.6651C52.9829 32.3665 52.3898 32.0052 51.8398 31.5903C48.7036 29.2159 46.7553 24.6882 48.8018 21L47.6946 22.5222C46.2155 24.6942 46.07 27.3915 47.0964 29.7892C48.1789 32.3354 50.397 34.332 52.9856 35.2795ZM46.0805 64.4964H44.1406C44.0332 64.4964 43.9262 64.5825 43.9032 64.6874L43.2147 67.8655L42.5261 71.0436C42.5036 71.1485 42.3966 71.2345 42.2892 71.2345H40.9162C39.5578 71.2345 39.7148 70.2971 39.993 69.0131L40.0013 68.9742L40.0316 68.812L40.0371 68.7818L40.0991 68.4521L40.1656 68.099L40.2363 67.7396L40.5494 66.2137L40.8629 64.6878C40.8845 64.5825 40.8138 64.496 40.7064 64.496H38.7155C38.6081 64.496 38.5016 64.5821 38.4795 64.6874L38.0512 66.7133L37.6234 68.7397L37.6225 68.7424L37.583 68.9311C37.09 71.1764 37.2203 73.3182 39.9003 73.3855L39.9783 73.3869H44.1846C44.2921 73.3869 44.399 73.3008 44.4215 73.1959L45.3286 68.9421L46.2357 64.6878C46.2582 64.5825 46.1884 64.4969 46.0805 64.4964ZM25.3056 64.474H23.1756C23.0677 64.474 22.9603 64.5601 22.9364 64.6645L22.7344 65.5538L22.5324 66.4431C22.509 66.548 22.5774 66.6336 22.6853 66.6336H24.8318C24.9397 66.6336 25.0467 66.5475 25.0696 66.4427L25.2647 65.5538L25.4598 64.665C25.4823 64.5601 25.4135 64.474 25.3056 64.474ZM24.6877 67.2418H22.5407C22.4333 67.2418 22.3254 67.3279 22.3015 67.4323L21.9999 68.7649L21.6988 70.097L21.6148 70.4789L21.3251 71.839L21.0359 73.1996C21.0134 73.3044 20.9671 73.4739 20.9326 73.5755C20.9326 73.5755 20.5314 74.7662 19.8571 74.7524L19.7726 74.7506L19.1891 74.7401C19.0817 74.7387 18.9734 74.8225 18.9481 74.9265L18.7255 75.8602L18.5033 76.7935C18.4781 76.8979 18.546 76.984 18.653 76.9858C19.0354 76.9904 19.892 77 20.4102 77C22.0945 77 22.9828 76.069 23.5515 73.3901L24.2176 70.3155L24.8424 67.4318C24.8649 67.3279 24.7951 67.2418 24.6877 67.2418ZM64.2201 66.521L64.131 66.1542L64.0433 65.7787L63.9988 65.5891C63.8243 64.9127 63.3125 64.523 62.2007 64.523L60.47 64.5212L58.8762 64.5189H57.0827C56.9753 64.5189 56.8688 64.605 56.8463 64.7098L56.7669 65.0835L56.6732 65.525L56.647 65.6491L55.8396 69.4225L55.0729 73.0045C55.05 73.1098 55.0426 73.2389 55.0555 73.2911C55.0684 73.3438 55.2754 73.3869 55.3828 73.3869H57.0005C57.1084 73.3869 57.2447 73.3676 57.3035 73.3438C57.3622 73.32 57.449 73.1089 57.4706 73.004L57.7579 71.5849L58.0458 70.1653L58.0462 70.163L58.0848 69.9738L58.4337 68.3436L58.7417 66.9038C58.7647 66.799 58.8707 66.7133 58.9781 66.7129L64.0686 66.7106C64.1764 66.7115 64.2444 66.6259 64.2201 66.521ZM70.7731 63.2055L70.381 63.2069H68.7518C68.644 63.2069 68.5058 63.2797 68.4456 63.3685L64.8425 68.6339C64.7819 68.7228 64.7126 68.7099 64.6887 68.6055L64.4234 67.4456C64.3995 67.3407 64.2917 67.2551 64.1838 67.2551H61.8679C61.76 67.2551 61.6962 67.3393 61.7256 67.4424L62.7635 71.0697C62.7929 71.1732 62.7952 71.3426 62.7685 71.447L62.3164 73.2023C62.2893 73.3067 62.3554 73.3914 62.4633 73.3914H64.7526C64.86 73.3914 64.9701 73.3063 64.9968 73.2023L65.4494 71.447C65.476 71.3422 65.5508 71.1874 65.616 71.1013L71.4653 63.3571C71.5305 63.271 71.4951 63.2009 71.3877 63.2018L70.7731 63.2055ZM52.3714 67.7478V67.746C52.3581 67.8623 52.2502 67.9479 52.1423 67.9479H49.2058C49.1039 67.9479 49.0524 67.8792 49.0676 67.7941L49.0704 67.7872L49.0685 67.7881L49.0699 67.7785L49.0832 67.7286C49.3637 66.9849 49.9348 66.4967 51.0085 66.4967C52.2176 66.4963 52.4536 67.0852 52.3714 67.7478ZM51.5098 64.3664C47.7405 64.3664 46.8472 66.6487 46.3459 68.9526C45.845 71.3009 45.8877 73.4958 49.7888 73.4958H50.2616L50.3791 73.4954H50.4067L50.8749 73.494H50.8832C51.9133 73.4899 52.9466 73.4821 53.3648 73.4789C53.4718 73.4771 53.5764 73.3914 53.5985 73.2866L53.7564 72.5168L53.7871 72.367L53.9753 71.4484C53.9969 71.3435 53.9267 71.257 53.8188 71.257H50.3121C48.917 71.257 48.503 70.8874 48.6558 69.8003H54.2613H54.2645C54.3536 69.7989 54.4362 69.7375 54.4688 69.656L54.4821 69.6075C55.3144 66.4756 55.0752 64.3668 51.5098 64.3664ZM33.6939 67.7359L33.6406 67.9232L33.2174 69.4202L32.7941 70.9163C32.7652 71.0202 32.6527 71.1045 32.5449 71.1045H30.3047C28.6053 71.1045 28.1912 69.7783 28.6053 67.8229C29.0189 65.8226 29.83 64.5793 31.5028 64.4534C33.7889 64.2812 34.2461 65.8849 33.6939 67.7359ZM35.2308 70.9895C35.2308 70.9895 36.2871 68.4306 36.5267 66.9533C36.854 64.9754 35.8611 62.106 32.0261 62.106C28.2132 62.106 26.557 64.8449 25.9253 67.8229C25.2936 70.8224 26.1213 73.4523 29.9127 73.4308L32.9038 73.4198L35.699 73.4098C35.8064 73.4088 35.9166 73.3237 35.9442 73.2202L36.4312 71.3674C36.4583 71.2629 36.3927 71.1778 36.2848 71.1768L35.8179 71.1741L35.3511 71.1714C35.2597 71.1709 35.2074 71.1114 35.2184 71.0331L35.2308 70.9895ZM54.1071 69.2764C54.1071 69.3474 54.0497 69.4051 53.9786 69.4051C53.9079 69.4051 53.85 69.3474 53.85 69.2764C53.85 69.2059 53.9074 69.1486 53.9786 69.1486C54.0497 69.1486 54.1071 69.2059 54.1071 69.2764Z" fill="url(#paint0_linear_26_482)"/>
<defs>
<linearGradient id="paint0_linear_26_482" x1="20.509" y1="19.4394" x2="105.865" y2="185.237" gradientUnits="userSpaceOnUse">
<stop offset="0.0397723" stop-color="#0D0D12"/>
<stop offset="1" stop-color="#0D0D12" stop-opacity="0"/>
</linearGradient>
</defs>
</svg>
