<svg width="89" height="100" viewBox="0 0 89 100" fill="none" xmlns="http://www.w3.org/2000/svg">
<path d="M44.2369 99.4044L8.3189 89.4392L0.5 0.404419L88.5 0.590684L80.2864 89.5696L44.2369 99.4044Z" fill="white"/>
<path d="M73.4446 83.8884L80.4553 7.8549L44.4809 7.7804L44.293 91.8233L73.4446 83.8884Z" fill="white"/>
<path d="M46.4551 18.6957L46.3799 51.7205L57.394 51.7391H57.5256L56.2099 65.8953L46.3423 68.503L46.3047 79.8466L66.491 74.3517L69.5922 40.8426L57.4128 40.824L57.4504 29.6295L70.5696 29.6667H70.6071L71.6221 18.7516L46.4551 18.6957Z" fill="url(#paint0_linear_26_454)"/>
<path d="M31.325 18.6581L32.8851 66.4538L29.5019 65.6528L28.7877 57.1219L19.8223 57.1032L21.3259 74.2583L41.4745 79.8462L41.6249 18.6767L31.325 18.6581Z" fill="url(#paint1_linear_26_454)"/>
<defs>
<linearGradient id="paint0_linear_26_454" x1="47.2653" y1="16.9915" x2="160.28" y2="113.022" gradientUnits="userSpaceOnUse">
<stop offset="0.0397723" stop-color="#0D0D12"/>
<stop offset="1" stop-color="#0D0D12" stop-opacity="0"/>
</linearGradient>
<linearGradient id="paint1_linear_26_454" x1="20.6495" y1="16.9529" x2="129.846" y2="96.809" gradientUnits="userSpaceOnUse">
<stop offset="0.0397723" stop-color="#0D0D12"/>
<stop offset="1" stop-color="#0D0D12" stop-opacity="0"/>
</linearGradient>
</defs>
</svg>
