<svg width="257" height="65" viewBox="0 0 257 65" fill="none" xmlns="http://www.w3.org/2000/svg">
<path d="M52.4193 14H10.7861V51.17H52.4193V14Z" fill="white"/>
<path d="M48.9483 17.0996H14.2549V48.0746H48.9483V17.0996Z" fill="#999999"/>
<path d="M14.2529 32.584H31.5989L48.9449 48.0715H14.2529V32.584Z" fill="#666666"/>
<path d="M14.2529 32.5871H31.5989L48.9449 17.0996H14.2529V32.5871Z" fill="#CCCCCC"/>
<path d="M81.4401 27.9941H78.1887L74.4517 33.0443H74.417V27.9941H71.4404V39.1451H74.4142V33.9166L79.1323 39.1451H82.8361L77.5837 33.2289L81.4456 27.9991" fill="white"/>
<path fill-rule="evenodd" clip-rule="evenodd" d="M89.2347 30.6741L91.1483 34.9895H87.496L89.2347 30.6741ZM90.9 27.9941H87.4738L82.6904 39.1451H85.8211L86.7078 36.9385H92.0115L92.9829 39.1451H96.1648L90.9 27.9941Z" fill="white"/>
<path d="M107.664 27.9941H96.6038V30.0856H102.673L96.1514 39.1402H107.669V37.0488H101.2L107.669 27.9941" fill="white"/>
<path fill-rule="evenodd" clip-rule="evenodd" d="M114.966 30.6741L116.878 34.9895H113.227L114.966 30.6741ZM116.631 27.9941H113.205L108.423 39.1451H111.552L112.44 36.9385H117.744L118.715 39.1451H121.897L116.631 27.9941Z" fill="white"/>
<path d="M135.28 27.9913H132.359V34.558L126.01 27.9913H123.315V39.1423H126.255V32.2411L132.81 39.1373H135.28V27.9863" fill="white"/>
<path d="M149.028 35.6097L148.906 35.6754L148.314 36.0025C147.245 36.6084 146.014 36.9469 144.749 36.9826C144.213 37.0301 143.671 36.9761 143.16 36.8242C142.649 36.6722 142.179 36.4257 141.782 36.1008C141.385 35.7758 141.069 35.3797 140.855 34.9383C140.64 34.4969 140.533 34.0202 140.539 33.5391C140.545 33.0581 140.665 32.5837 140.89 32.1468C141.116 31.7099 141.442 31.3204 141.848 31.0036C142.253 30.6869 142.729 30.4501 143.244 30.3087C143.759 30.1673 144.301 30.1244 144.836 30.1829C146.296 30.1935 147.715 30.6168 148.888 31.3922V28.8275C148.576 28.6399 148.237 28.4915 147.879 28.3864C146.741 27.9924 145.523 27.8111 144.303 27.8538C143.083 27.8964 141.885 28.162 140.784 28.6342C139.776 29.1137 138.934 29.8299 138.348 30.7055C137.763 31.5811 137.456 32.5828 137.462 33.6026C137.462 36.9479 140.297 39.2908 144.367 39.2908C146.006 39.31 147.619 38.924 149.028 38.1757V35.6097Z" fill="white"/>
<path d="M154.46 27.9941H151.468V39.1402H154.46V27.9941Z" fill="white"/>
<path fill-rule="evenodd" clip-rule="evenodd" d="M186.526 33.6471C186.548 34.0915 186.467 34.5351 186.289 34.9505C186.11 35.3658 185.838 35.7439 185.489 36.0613C185.14 36.3787 184.721 36.6285 184.259 36.7953C183.798 36.9621 183.302 37.0423 182.804 37.0308C182.3 37.0529 181.796 36.9798 181.326 36.8162C180.855 36.6525 180.429 36.4021 180.074 36.0811C179.72 35.7602 179.445 35.3761 179.268 34.9539C179.091 34.5317 179.016 34.0809 179.048 33.631C179.016 33.1746 179.09 32.7172 179.264 32.2872C179.439 31.8573 179.71 31.4638 180.061 31.131C180.412 30.7983 180.836 30.5334 181.307 30.3527C181.777 30.172 182.284 30.0794 182.796 30.0805C183.308 30.0816 183.815 30.1764 184.284 30.3591C184.754 30.5418 185.176 30.8086 185.526 31.1428C185.875 31.477 186.145 31.8717 186.317 32.3024C186.488 32.7332 186.56 33.1908 186.526 33.6471ZM189.587 33.5826C189.673 32.3675 189.349 31.1573 188.656 30.1085C187.963 29.0597 186.934 28.2206 185.702 27.6998C184.469 27.179 183.09 27.0005 181.742 27.1872C180.394 27.374 179.141 27.9175 178.143 28.7474C177.145 29.5773 176.449 30.6555 176.145 31.8424C175.841 33.0293 175.943 34.2704 176.438 35.4051C176.932 36.5397 177.797 37.5158 178.919 38.207C180.042 38.8982 181.371 39.2727 182.735 39.282C183.607 39.3208 184.479 39.203 185.299 38.9356C186.119 38.6682 186.871 38.2566 187.51 37.7252C188.149 37.1938 188.662 36.5534 189.019 35.8419C189.375 35.1303 189.569 34.3621 189.587 33.5826Z" fill="white"/>
<path d="M200.759 37.0636H194.708V27.9941H191.716V39.1451H200.761V37.0636" fill="white"/>
<path fill-rule="evenodd" clip-rule="evenodd" d="M205.387 30.119H206.883C207.664 30.0506 208.451 30.1513 209.178 30.4127C209.831 30.6864 210.373 31.133 210.731 31.6917C211.089 32.2504 211.245 32.8941 211.178 33.5349C211.239 34.1774 211.083 34.8215 210.73 35.3839C210.377 35.9463 209.842 36.4011 209.197 36.6894C208.363 36.9644 207.473 37.076 206.586 37.0165H205.387V30.119ZM202.396 27.9941V39.1451L207.004 39.1625C207.923 39.1747 208.84 39.0864 209.735 38.8998C211.067 38.6199 212.247 37.9318 213.07 36.9551C213.893 35.9785 214.306 34.7753 214.238 33.5548C214.253 32.7825 214.093 32.0155 213.768 31.2998C213.209 30.1667 212.233 29.2382 211.002 28.6682C210.238 28.3352 209.414 28.1255 208.568 28.0487C208.123 28.0115 207.676 27.9953 207.229 28.0003L202.396 27.9941Z" fill="white"/>
<path fill-rule="evenodd" clip-rule="evenodd" d="M216.817 26.2599C216.809 26.3987 216.833 26.5374 216.887 26.6677C216.941 26.7979 217.025 26.917 217.132 27.0177C217.239 27.1183 217.368 27.1984 217.511 27.2532C217.655 27.308 217.809 27.3362 217.964 27.3362C218.12 27.3362 218.274 27.308 218.417 27.2532C218.56 27.1984 218.689 27.1183 218.796 27.0177C218.904 26.917 218.987 26.7979 219.041 26.6677C219.095 26.5374 219.119 26.3987 219.112 26.2599C219.119 26.1211 219.095 25.9824 219.041 25.8521C218.987 25.7218 218.904 25.6028 218.796 25.5021C218.689 25.4015 218.56 25.3213 218.417 25.2666C218.274 25.2118 218.12 25.1836 217.964 25.1836C217.809 25.1836 217.655 25.2118 217.511 25.2666C217.368 25.3213 217.239 25.4015 217.132 25.5021C217.025 25.6028 216.941 25.7218 216.887 25.8521C216.833 25.9824 216.809 26.1211 216.817 26.2599ZM219.441 27.9945H216.45V39.1455H219.441V27.9945Z" fill="white"/>
<path d="M234.153 27.9913H231.232V34.558L224.883 27.9913H222.188V39.1423H225.128V32.2411L231.684 39.1373H234.155V27.9863" fill="white"/>
<path d="M247.374 28.7603C246.86 28.5366 246.324 28.3562 245.774 28.2213C244.777 27.9725 243.747 27.8474 242.712 27.8496C238.434 27.8496 235.548 30.1554 235.548 33.5701C235.548 36.9154 238.469 39.2918 242.592 39.2918C244.429 39.3364 246.226 38.8046 247.669 37.7889V33.1897H242.951V35.265H244.655V36.5722C243.986 36.8302 243.264 36.9638 242.535 36.965C242.03 36.995 241.525 36.9317 241.049 36.779C240.573 36.6264 240.138 36.3876 239.771 36.0777C239.403 35.7678 239.112 35.3934 238.914 34.9781C238.716 34.5628 238.617 34.1155 238.622 33.6643C238.622 31.5059 240.287 30.1666 242.952 30.1666C244.421 30.1902 245.866 30.5086 247.178 31.0983L247.369 31.1801V28.7603" fill="white"/>
<path d="M173.845 27.9912H170.872V32.4689H164.995V27.9912H162.003V39.1422H164.995V34.626H170.872V39.1372H173.845V27.9862" fill="white"/>
</svg>
