<svg width="32" height="32" viewBox="0 0 32 32" fill="none" xmlns="http://www.w3.org/2000/svg">
<g id="icons8-linkedin 1">
<path id="Vector" d="M26.2405 2.55859H5.76055C3.99415 2.55859 2.56055 3.99219 2.56055 5.75859V26.2386C2.56055 28.005 3.99415 29.4386 5.76055 29.4386H26.2405C28.0069 29.4386 29.4405 28.005 29.4405 26.2386V5.75859C29.4405 3.99219 28.0069 2.55859 26.2405 2.55859ZM10.8805 12.7986V24.9586H7.04055V12.7986H10.8805ZM7.04055 9.25939C7.04055 8.36339 7.80855 7.67859 8.96055 7.67859C10.1125 7.67859 10.8357 8.36339 10.8805 9.25939C10.8805 10.1554 10.1637 10.8786 8.96055 10.8786C7.80855 10.8786 7.04055 10.1554 7.04055 9.25939ZM24.9605 24.9586H21.1205C21.1205 24.9586 21.1205 19.0322 21.1205 18.5586C21.1205 17.2786 20.4805 15.9986 18.8805 15.973H18.8293C17.2805 15.973 16.6405 17.2914 16.6405 18.5586C16.6405 19.141 16.6405 24.9586 16.6405 24.9586H12.8005V12.7986H16.6405V14.437C16.6405 14.437 17.8757 12.7986 20.3589 12.7986C22.8997 12.7986 24.9605 14.5458 24.9605 18.085V24.9586Z" fill="white"/>
</g>
</svg>
