<svg width="67" height="30" viewBox="0 0 67 30" fill="none" xmlns="http://www.w3.org/2000/svg">
<path id="Vector" d="M12.9505 4.875H1.03514C0.81 4.875 0.625 4.69281 0.625 4.465V1.035C0.625 0.807202 0.809988 0.625 1.03514 0.625H65.9649C66.19 0.625 66.375 0.807206 66.375 1.035V4.465C66.375 4.69279 66.19 4.875 65.9649 4.875H52.1741L39.5975 29.1724L39.4926 29.375H39.2644H34.3784H33.7615L34.0455 28.8274L46.4652 4.875H28.242L28.2561 18.5495V18.5499C28.2561 19.7215 28.074 20.7994 27.704 21.7792C27.3453 22.7457 26.831 23.5824 26.1591 24.2836L26.157 24.2857C25.4743 24.9871 24.6545 25.5269 23.7029 25.9062M12.9505 4.875L23.5633 25.5581M12.9505 4.875L12.9223 18.5491L12.9223 18.5532C12.9327 19.7232 13.1147 20.7992 13.4737 21.7772L13.4736 21.7772L13.4749 21.7805C13.8433 22.7555 14.3619 23.5965 15.0334 24.2975M12.9505 4.875L13.8257 21.648M23.7029 25.9062C23.7026 25.9063 23.7024 25.9064 23.7022 25.9065L23.5633 25.5581M23.7029 25.9062C23.7031 25.9061 23.7033 25.906 23.7035 25.9059L23.5633 25.5581M23.7029 25.9062C22.7563 26.2875 21.7014 26.4745 20.5439 26.4745C19.4067 26.4745 18.3675 26.2925 17.4317 25.9218L17.4283 25.9204C16.496 25.5405 15.6959 24.9998 15.0334 24.2975M23.5633 25.5581C22.6676 25.919 21.6611 26.0995 20.5439 26.0995C19.4469 26.0995 18.4555 25.9241 17.5698 25.5731C16.6841 25.2122 15.9292 24.7009 15.3052 24.0392M15.0334 24.2975C15.0338 24.2979 15.0341 24.2983 15.0345 24.2986L15.3052 24.0392M15.0334 24.2975C15.0331 24.2972 15.0327 24.2968 15.0324 24.2964L15.3052 24.0392M15.3052 24.0392C14.6711 23.3774 14.178 22.5804 13.8257 21.648M13.8257 21.648C13.4835 20.7155 13.3074 19.6828 13.2973 18.5499L13.8257 21.648ZM17.3107 18.5469L17.2825 4.875H23.911L23.8828 18.544C23.8632 19.1971 23.7764 19.7909 23.6254 20.3272C23.4757 20.8487 23.2589 21.291 22.9792 21.66C22.7039 22.0133 22.3637 22.2864 21.9543 22.4817C21.5597 22.6648 21.0925 22.7618 20.5439 22.7618C20.0075 22.7618 19.5526 22.6656 19.1697 22.4845C18.7875 22.2889 18.4642 22.024 18.197 21.6872C17.9199 21.3307 17.7035 20.8907 17.5536 20.3591C17.4025 19.8134 17.3205 19.21 17.3107 18.5469ZM31.7818 14.7445L31.779 14.7476C31.271 15.3111 31.0183 15.9934 31.0183 16.7732C31.0183 17.5556 31.2779 18.2355 31.7996 18.7898L31.7995 18.7899L31.8051 18.7956C32.3553 19.3556 33.1057 19.6146 34.0051 19.6146C34.8951 19.6146 35.6394 19.3551 36.1885 18.797C36.7351 18.2518 37.007 17.5684 37.007 16.7732C37.007 15.9806 36.7421 15.2948 36.2091 14.74C35.66 14.1583 34.9083 13.8867 34.0051 13.8867C33.0845 13.8867 32.3236 14.1568 31.7818 14.7445Z" fill="white" stroke="white" stroke-width="0.75"/>
</svg>
