<svg width="32" height="32" viewBox="0 0 32 32" fill="none" xmlns="http://www.w3.org/2000/svg">
<g id="icons8-twitter 1" clip-path="url(#clip0_26_417)">
<path id="Vector" d="M32.0404 6.67875C30.8579 7.20375 29.5904 7.55625 28.2579 7.71625C29.6179 6.90125 30.6629 5.61125 31.1529 4.07625C29.8829 4.82875 28.4704 5.37625 26.9729 5.67125C25.7729 4.39125 24.0629 3.59375 22.1704 3.59375C18.5354 3.59375 15.5879 6.53875 15.5879 10.1737C15.5879 10.6887 15.6479 11.1912 15.7604 11.6737C10.2904 11.3987 5.44289 8.77875 2.19539 4.79625C1.62789 5.77125 1.30539 6.90125 1.30539 8.10625C1.30539 10.3887 2.46539 12.4038 4.23289 13.5862C3.15289 13.5512 2.13789 13.2537 1.25039 12.7612C1.25039 12.7887 1.25039 12.8162 1.25039 12.8438C1.25039 16.0337 3.52039 18.6912 6.52789 19.2987C5.97789 19.4487 5.39539 19.5287 4.79539 19.5287C4.37039 19.5287 3.95789 19.4887 3.55539 19.4087C4.39539 22.0212 6.82539 23.9287 9.70289 23.9812C7.45289 25.7463 4.61539 26.7962 1.53039 26.7962C0.997891 26.7962 0.475391 26.7662 -0.0371094 26.7037C2.87289 28.5737 6.33289 29.6612 10.0504 29.6612C22.1554 29.6612 28.7754 19.6338 28.7754 10.9387C28.7754 10.6537 28.7679 10.3663 28.7579 10.0862C30.0429 9.15875 31.1579 7.99875 32.0404 6.67875Z" fill="white"/>
</g>
<defs>
<clipPath id="clip0_26_417">
<rect width="32" height="32" fill="white"/>
</clipPath>
</defs>
</svg>
